<svg xmlns="http://www.w3.org/2000/svg" viewBox="0 0 200 150" fill="none">
  <!-- MercadoLibre handshake icon - Dark version (white on transparent) -->
  <g transform="translate(100,75)">
    <!-- Outer ellipse -->
    <ellipse cx="0" cy="0" rx="80" ry="55" stroke="#ffffff" stroke-width="5" fill="none"/>
    <!-- Inner band -->
    <path d="M-75,10 Q-50,-25 0,-25 Q50,-25 75,10 Q50,15 0,15 Q-50,15 -75,10 Z" stroke="#ffffff" stroke-width="3" fill="none"/>
    <!-- Left hand -->
    <path d="M-55,5 Q-40,-15 -20,-15 L10,-5 Q20,-2 15,5 Q10,12 0,10 L-10,8" stroke="#ffffff" stroke-width="4" fill="none" stroke-linecap="round" stroke-linejoin="round"/>
    <!-- Right hand -->
    <path d="M55,5 Q40,-10 20,-8 L-5,2 Q-15,5 -10,12" stroke="#ffffff" stroke-width="4" fill="none" stroke-linecap="round" stroke-linejoin="round"/>
    <!-- Fingers/knuckles -->
    <circle cx="-8" cy="15" r="4" stroke="#ffffff" stroke-width="3" fill="none"/>
    <circle cx="0" cy="17" r="4" stroke="#ffffff" stroke-width="3" fill="none"/>
    <circle cx="8" cy="15" r="4" stroke="#ffffff" stroke-width="3" fill="none"/>
  </g>
</svg>
